<?xml version="1.0" encoding="UTF-8"?>
<!DOCTYPE svg PUBLIC "-//W3C//DTD SVG 1.0//EN" "http://www.w3.org/TR/2001/REC-SVG-20010904/DTD/svg10.dtd">
<!-- Creator: CorelDRAW 2020 (64-Bit) -->
<svg xmlns="http://www.w3.org/2000/svg" xml:space="preserve" width="307px" height="248px" version="1.0" style="shape-rendering:geometricPrecision; text-rendering:geometricPrecision; image-rendering:optimizeQuality; fill-rule:evenodd; clip-rule:evenodd"
viewBox="0 0 307 247.96"
 xmlns:xlink="http://www.w3.org/1999/xlink"
 xmlns:xodm="http://www.corel.com/coreldraw/odm/2003">
 <defs>
  <style type="text/css">
   <![CDATA[
    .fil0 {fill:#00A859}
    .fil2 {fill:#B01117}
    .fil3 {fill:#FFFEFE}
    .fil1 {fill:white}
   ]]>
  </style>
 </defs>
 <g id="Capa_x0020_1">
  <metadata id="CorelCorpID_0Corel-Layer"/>
  <g id="_2232514263328">
   <path class="fil0" d="M220.81 139.22c-14.82,65.52 -98.82,74.54 -130.22,27.05 -41.06,-62.11 14.08,-127.12 74.11,-114.44 34.55,7.3 66.05,43.42 56.11,87.39zm-189.11 -96.95c-0.81,10.53 22.54,20.49 24.93,31.91 -7.26,-0.35 -11.49,-7.21 -19.89,-15.59 -2.98,-2.96 -15.39,-18.39 -18.2,-13.2 -1.96,3.61 11.97,15.36 14.71,18.07l13.38 13.21c3.36,3.83 3,1.95 1.88,6.05 -8.26,0.93 -27.84,-31.78 -36.83,-30.38 -3.79,6.09 2.07,8.6 13.04,19.66 3.39,3.41 15.43,13.19 15.36,17.43 -5.52,1.96 -7.98,-3.13 -16.02,-11.2 -3.73,-3.74 -10.29,-12.94 -15.92,-12.43 -0.03,0.09 -3.68,0.55 1.78,6.98 1.55,1.82 3.86,3.62 5.74,5.49 4.07,4.07 7.1,7.08 11.12,11.16 6.59,6.68 14.51,15.63 28.22,9.76 5.79,3.25 8.35,6.79 13.28,10.04 0.77,33.74 0.98,45.9 19.84,67.88 11.85,13.8 32.26,27.43 60.18,27.79 26.68,0.36 44.75,-10.12 61.13,-26.88 16.71,-17.1 22.57,-36.29 20.98,-66.65l12.33 -12.5c18.57,5.15 27.83,-1.16 35.29,-12.46 5.25,-7.96 18.19,-28.32 8.41,-39.36 -12.13,-13.7 -65.72,11.56 -52.62,41.41l-6.68 8.23c-7.38,-11.83 -9.73,-24.39 -26.77,-37.38 -42.8,-32.62 -101.68,-16.96 -123,25.71 -1.74,3.5 -3.72,8.25 -5.66,11.32l-6.51 -7.2c7.03,-17.31 -6.27,-25.23 -19.93,-39.08 -11,-11.15 -7.97,-8.44 -12.33,-8.1 -0.3,0.02 -0.83,0.17 -1.24,0.31z"/>
   <path class="fil1" d="M81.91 130.86c-3.95,-40.31 25.08,-71.28 59.56,-75.03 40.13,-4.37 71.59,24.23 75.5,59.65 8.05,72.94 -83.93,99.46 -119.91,51.3l-6.62 -9.64c-4.25,-6.97 -7.59,-16.57 -8.53,-26.28zm138.9 8.36c9.94,-43.97 -21.56,-80.09 -56.11,-87.39 -60.03,-12.68 -115.17,52.33 -74.11,114.44 31.4,47.49 115.4,38.47 130.22,-27.05z"/>
   <path class="fil2" d="M75.71 121.17l0 5.47c0,0.87 0.24,1.16 0.31,1.85 0.6,5.61 0.55,7.28 2.04,13.37 1.14,4.63 2.75,9.07 4.67,13.06 1.58,3.3 1.89,3.99 3.78,7.16 5.94,9.91 15.7,19.56 25.5,25.21 0.95,0.55 1.87,1.1 2.87,1.61 0.6,0.3 0.79,0.49 1.38,0.78 8.71,4.25 16.16,6.31 25.79,7.52 8.15,1.02 17.87,0.17 25.81,-1.94 3.52,-0.94 9.43,-2.92 12.6,-4.48 0.93,-0.46 1.78,-0.89 2.76,-1.38 1.04,-0.52 1.77,-1 2.76,-1.55 3.64,-1.98 6.97,-4.48 10.22,-7.01l4.57 -4.05c0.92,-0.71 1.25,-1.37 2.02,-2.13 3.33,-3.32 5.96,-6.94 8.56,-10.83 5.14,-7.69 8.75,-16.77 10.47,-25.99 0.24,-1.31 0.44,-2.29 0.64,-3.67 0.75,-5.22 0.42,-11.22 0.42,-16.64 0,-1.91 -0.69,-5.46 -1.01,-7.44 -0.39,-2.33 -1.06,-4.71 -1.7,-6.93 -2.15,-7.47 -5.92,-15.4 -10.57,-21.74 -2.83,-3.85 -3.64,-4.97 -6.81,-8.27 -0.45,-0.45 -0.53,-0.74 -0.99,-1.16 -0.44,-0.42 -0.7,-0.52 -1.17,-0.99 -0.4,-0.4 -0.67,-0.68 -1.07,-1.08 -0.46,-0.47 -0.72,-0.58 -1.16,-0.99 -0.48,-0.45 -0.58,-0.6 -1.13,-1.03 -0.43,-0.33 -0.77,-0.62 -1.18,-0.97 -1.57,-1.32 -3.19,-2.58 -4.89,-3.73l-11.01 -6.24c-2.38,-0.99 -3.4,-1.55 -6.14,-2.47 -5.69,-1.92 -11.57,-3.46 -17.64,-3.91l-3.96 -0.34c-2.28,0 -5.86,-0.13 -7.95,0.17l-5.95 0.69c-4.46,0.63 -9.9,1.95 -14.02,3.54 -2.22,0.86 -4.17,1.53 -6.34,2.61 -6.21,3.11 -9.54,5.06 -14.85,9.34 -0.49,0.4 -0.83,0.71 -1.28,1.05l-2.39 2.08c-2.27,1.76 -6.62,6.79 -8.47,9.26 -0.68,0.9 -1.28,1.7 -1.9,2.58l-3.47 5.31c-0.55,0.95 -0.99,1.93 -1.57,2.91 -2.3,3.85 -5.1,11.81 -6.16,16.04 -1.24,4.94 -1.67,8.33 -2.07,13.35 -0.06,0.82 -0.32,1.06 -0.32,2z"/>
   <path class="fil3" d="M94.84 84.27c-0.16,0.96 0.17,1.17 1.23,2.46 1.13,1.37 2.68,2.67 4.51,3.28 1.56,0.52 3.08,-0.04 3.44,1.04 0.11,0.32 -0.01,0.16 0.16,0.5 0.39,0.78 2.12,0.91 2.93,1.01 2.32,0.27 3.27,-0.61 4.57,-0.59 0.55,1.51 0.01,2.9 2.04,3.32 1.65,0.33 3.13,-0.58 4.64,-0.66 0.72,1.43 1.1,2.25 3.01,2.74 0.92,0.24 1.86,0.08 2.6,-0.2 0.72,-0.27 1.78,-1 2.23,-0.61 0.16,0.13 0.57,2.81 3.52,2.56 2.07,-0.17 2.95,-1.54 4.17,-2.07 0.79,0.64 1.43,2.47 4.97,2.32 2.15,-0.09 4.03,-1.07 5.47,-1.87l0.01 -10.35c-1.67,0.02 -2.85,0.64 -3.91,-0.53 -1.57,-1.72 -2.79,-6.48 -4.7,-8.73 -3.83,-4.51 -8.42,-1.11 -12.66,1.13 -7.15,3.77 -12.04,6.86 -20.52,6.49 -2.76,-0.12 -4.98,-1.83 -7.71,-1.24z"/>
   <path class="fil3" d="M151.39 87.13l0.01 10.4c1.67,0.76 3.2,1.75 5.52,1.84 1.2,0.05 2.17,-0.1 3.08,-0.64 1.03,-0.61 1.17,-1.2 1.89,-1.72 1.36,0.94 4.17,3.42 6.55,1.38 0.9,-0.78 0.63,-1.12 1.16,-1.99 1.29,-0.03 3.51,2.42 6.54,0.07 0.58,-0.44 0.78,-1.06 1.15,-1.82 1.96,-0.03 6.42,2.86 6.63,-2.7 1.54,0.02 2.28,0.86 4.62,0.62 3.62,-0.39 2.76,-1.18 3.22,-2.01 2.24,-0.51 2.82,0.13 5.65,-1.82 0.86,-0.59 1.39,-1.1 1.98,-1.83 0.8,-1 1.16,-1 1.11,-2.75 -3.91,-0.33 -6.31,2.98 -15.65,0.48 -11.22,-2.99 -19.55,-13.46 -24.91,-6.69 -1.98,2.51 -3.25,7.28 -4.66,8.77 -1,1.05 -2.5,0.51 -3.89,0.41z"/>
   <path class="fil3" d="M150.42 135.82c4.36,1.56 2.28,3.21 8.31,-1.07 1.98,-1.4 5.27,-3.97 5.2,-7.78 -0.11,-6.92 -10.77,-9.13 -16.08,-9.84 -3.75,-0.49 -8.24,-0.26 -11.97,-0.93 -3.35,-0.6 -7.01,-1.72 -9.51,-3.42 -0.92,-0.62 -2.73,-2.66 -1.11,-4.04 1.1,-0.93 4.33,-0.57 5.98,-0.47 2.32,0.15 2.77,0.9 4.66,1.79 1.73,0.8 7.75,0.14 6.1,-2.3 -2.35,-3.47 -3.48,-3.08 -6.79,-3.01 -3.24,0.08 -8.77,0.49 -11.26,1.67 -4.08,1.94 -2.82,5.79 -0.22,7.84 12.04,9.53 22.14,5.33 30.23,8.55 2.3,0.92 6.37,4.1 4.22,7.57 -1.08,1.73 -3.68,2.85 -5.75,4.03 -0.39,0.22 -0.78,0.44 -1.06,0.6 -0.89,0.51 -0.73,0.4 -0.95,0.81z"/>
   <path class="fil3" d="M150.63 154.99c0.65,0.29 0.77,0.66 1.41,0.45 0.74,-0.24 5.84,-4.98 5.98,-8.57 0.19,-4.73 -3.14,-7.84 -7.22,-9.48 -4.71,-1.9 -15.96,-5.06 -13.5,-10.97 0.74,-1.77 2.65,-3.29 4.4,-4.05 -0.51,-0.49 -4.69,-0.89 -5.61,-1.05 -1.01,-0.17 -1.14,-0.21 -1.73,0.32 -1.35,1.22 -3.12,3.26 -2.79,6.15 0.99,8.62 16.87,11.07 21.2,14.94 3.09,2.75 2.14,6.36 -0.88,8.88 -1.53,1.29 -1.44,0.62 -1.26,3.38z"/>
   <path class="fil3" d="M145.88 115.63l4.1 0.48 0.58 -37.98c-1.05,0.27 -1.5,0.74 -2.76,0.71 -1.28,-0.03 -1.54,-0.54 -2.43,-0.7 -0.22,2.13 0.26,23.83 0.29,28.12 0.01,1.77 -0.11,8.08 0.22,9.37z"/>
   <path class="fil3" d="M167.53 108.2c1.54,0 2.66,-0.13 3.3,1.06 2.11,3.95 -8.46,6.43 -10.93,6.92 -0.99,0.19 -6.33,0.56 -6.57,0.68 0.43,0.32 2.99,1.14 3.66,1.41 0.64,0.26 3.43,1.54 3.61,1.57 1.28,0.22 6.49,-2.16 7.51,-2.73 2.36,-1.33 4.39,-2.78 5.46,-4.81 1.8,-3.39 0.61,-4.78 -2.49,-5.95 -2.38,-0.89 -5.94,-1.24 -8.78,-1.53 -3.97,-0.41 -5.39,-0.9 -7.64,1.82 -0.76,0.92 -2.08,2.27 -0.07,3.1 4.41,1.8 6.38,-0.84 8.11,-1.24 1.06,-0.25 3.59,-0.3 4.83,-0.3z"/>
   <path class="fil3" d="M150.29 167.22c-0.03,0.89 -0.2,1.94 0.04,2.79 0.63,0.23 0.62,0.36 1.16,-0.06 0.85,-0.65 1.7,-1.73 2.34,-2.65 0.97,-1.4 1.68,-3.11 1.24,-5.3 -1.21,-5.98 -10.24,-7.22 -13.39,-13.17 -2.5,-4.7 2.48,-6.57 3.37,-8.27 -0.54,-0.43 -1.42,-0.83 -2.14,-1.23 -1.11,-0.62 -1.5,0.1 -2.14,0.66 -0.84,0.74 -2.31,2.37 -2.83,3.8 -1.45,4.03 1.48,7.83 3.17,9.6 2.11,2.19 5.14,3.61 7.62,5.64 1.95,1.59 5.8,5.55 1.56,8.19z"/>
   <path class="fil3" d="M146.71 67.14c-0.95,1.02 -1.49,0.36 -2.94,2.26 -2.74,3.59 0.67,9.12 5.36,7.88 2.41,-0.63 4.54,-3.13 3.64,-6.32 -0.79,-2.84 -5.15,-4.78 -6.06,-3.82z"/>
   <path class="fil3" d="M150.04 178.85l-0.02 5.71c0.7,-0.23 1.46,-2.11 1.78,-3.02 0.5,-1.42 0.74,-2.72 0.72,-4.35 -0.07,-7.42 -6.36,-7.21 -8.76,-11.53 -0.75,-1.36 -0.65,-2.73 0.18,-3.94 1.34,-1.94 1.5,-0.37 1.38,-3.78l-1.29 -0.77c-1.49,0.86 -3.35,2.79 -3.69,5.14 -0.65,4.48 3.96,7.57 7.06,10.31 2.11,1.85 2.65,2.29 2.64,6.23z"/>
   <path class="fil3" d="M145.98 133.93c0.45,0.33 3.18,1.47 3.75,1.46 0.02,-1.88 0.27,-11.38 0.06,-12.4l-3.87 -0.53 0.06 11.47z"/>
   <path class="fil3" d="M149.47 153.88l0.11 -11.49 -3.47 -1.95 0.06 10.41c0,1.09 -0.09,1.02 0.64,1.48 0.67,0.41 1.93,1.42 2.66,1.55z"/>
   <path class="fil3" d="M146.36 166.57c0.48,0.43 2.29,1.87 2.9,1.97l0.08 -7.78 -3 -2.19 0.02 8z"/>
  </g>
 </g>
</svg>
