<?xml version="1.0" encoding="UTF-8"?>
<!DOCTYPE svg PUBLIC "-//W3C//DTD SVG 1.0//EN" "http://www.w3.org/TR/2001/REC-SVG-20010904/DTD/svg10.dtd">
<!-- Creator: CorelDRAW 2020 (64-Bit) -->
<svg xmlns="http://www.w3.org/2000/svg" xml:space="preserve" width="307px" height="248px" version="1.0" style="shape-rendering:geometricPrecision; text-rendering:geometricPrecision; image-rendering:optimizeQuality; fill-rule:evenodd; clip-rule:evenodd"
viewBox="0 0 307 247.96"
 xmlns:xlink="http://www.w3.org/1999/xlink"
 xmlns:xodm="http://www.corel.com/coreldraw/odm/2003">
 <defs>
  <style type="text/css">
   <![CDATA[
    .fil0 {fill:#00A859}
    .fil3 {fill:#7D7D7D}
    .fil2 {fill:#B01117}
    .fil4 {fill:#FFFEFE}
    .fil1 {fill:white}
   ]]>
  </style>
 </defs>
 <g id="Capa_x0020_1">
  <metadata id="CorelCorpID_0Corel-Layer"/>
  <g id="_2232394774736">
   <path class="fil0" d="M231.51 128.46c-16.05,70.97 -107.03,80.74 -141.04,29.3 -44.49,-67.28 15.24,-137.7 80.27,-123.96 37.42,7.91 71.54,47.03 60.77,94.66zm-204.83 -105.01c-0.88,11.41 24.41,22.19 27,34.56 -7.87,-0.38 -12.45,-7.81 -21.55,-16.88 -3.22,-3.22 -16.67,-19.93 -19.71,-14.31 -2.12,3.91 12.96,16.65 15.93,19.58l14.49 14.3c3.65,4.16 3.25,2.12 2.05,6.56 -8.96,1.01 -30.16,-34.42 -39.9,-32.91 -4.11,6.6 2.25,9.32 14.13,21.3 3.66,3.69 16.71,14.28 16.64,18.88 -5.99,2.12 -8.65,-3.39 -17.36,-12.13 -4.04,-4.05 -11.14,-14.01 -17.25,-13.47 -0.02,0.1 -3.98,0.6 1.93,7.56 1.68,1.98 4.19,3.92 6.22,5.95 4.41,4.41 7.69,7.67 12.05,12.09 7.14,7.23 15.72,16.93 30.56,10.57 6.27,3.53 9.05,7.35 14.39,10.87 0.83,36.55 1.06,49.72 21.49,73.53 12.83,14.95 34.95,29.71 65.18,30.11 28.9,0.38 48.47,-10.97 66.22,-29.13 18.09,-18.51 24.45,-39.3 22.72,-72.19l13.36 -13.54c20.11,5.58 30.14,-1.25 38.22,-13.49 5.69,-8.62 19.71,-30.68 9.11,-42.64 -13.14,-14.83 -71.19,12.53 -57,44.86l-7.23 8.91c-8,-12.81 -10.54,-26.41 -29,-40.48 -46.36,-35.34 -110.13,-18.37 -133.23,27.85 -1.88,3.78 -4.02,8.93 -6.13,12.25l-7.05 -7.79c7.62,-18.75 -6.79,-27.33 -21.59,-42.34 -11.91,-12.07 -8.63,-9.13 -13.35,-8.77 -0.33,0.02 -0.9,0.19 -1.34,0.34z"/>
   <path class="fil1" d="M81.06 119.41c-4.27,-43.67 27.17,-77.21 64.51,-81.28 43.47,-4.73 77.54,26.25 81.78,64.61 8.73,79.02 -90.9,107.74 -129.88,55.58l-7.17 -10.45c-4.61,-7.54 -8.22,-17.95 -9.24,-28.46zm150.45 9.05c10.77,-47.63 -23.35,-86.75 -60.77,-94.66 -65.03,-13.74 -124.76,56.68 -80.27,123.96 34.01,51.44 124.99,41.67 141.04,-29.3z"/>
   <g>
    <path class="fil2" d="M105.44 83.47l0 3.58c0,0.57 0.16,0.76 0.21,1.21 0.39,3.69 0.35,4.78 1.34,8.78 0.74,3.04 1.8,5.95 3.06,8.57 1.04,2.16 1.24,2.62 2.48,4.69 3.89,6.51 10.3,12.84 16.73,16.55 0.62,0.36 1.23,0.72 1.88,1.05 0.39,0.2 0.52,0.33 0.91,0.52 5.72,2.78 10.6,4.13 16.92,4.93 5.35,0.67 11.72,0.11 16.94,-1.28 2.31,-0.61 6.18,-1.91 8.26,-2.93 0.61,-0.3 1.17,-0.59 1.81,-0.91 0.68,-0.34 1.16,-0.66 1.82,-1.01 2.38,-1.31 4.57,-2.94 6.7,-4.61l3 -2.65c0.6,-0.47 0.82,-0.9 1.32,-1.4 2.19,-2.18 3.92,-4.55 5.62,-7.1 3.37,-5.05 5.74,-11.01 6.87,-17.06 0.16,-0.86 0.29,-1.5 0.42,-2.41 0.5,-3.43 0.28,-7.36 0.28,-10.92 0,-1.25 -0.45,-3.58 -0.67,-4.88 -0.25,-1.53 -0.69,-3.09 -1.11,-4.54 -1.41,-4.9 -3.88,-10.11 -6.94,-14.27 -1.85,-2.53 -2.38,-3.26 -4.47,-5.42 -0.29,-0.3 -0.35,-0.49 -0.64,-0.77 -0.29,-0.27 -0.46,-0.34 -0.77,-0.65 -0.26,-0.26 -0.44,-0.44 -0.7,-0.71 -0.31,-0.3 -0.48,-0.37 -0.77,-0.65 -0.31,-0.29 -0.38,-0.39 -0.74,-0.67 -0.28,-0.22 -0.5,-0.41 -0.77,-0.64 -1.03,-0.86 -2.1,-1.69 -3.21,-2.45l-7.22 -4.09c-1.57,-0.65 -2.23,-1.02 -4.03,-1.62 -3.74,-1.26 -7.59,-2.27 -11.57,-2.56l-2.61 -0.23c-1.49,0 -3.84,-0.08 -5.21,0.12l-3.9 0.44c-2.93,0.42 -6.5,1.29 -9.2,2.33 -1.46,0.57 -2.74,1 -4.16,1.71 -4.08,2.04 -6.26,3.32 -9.75,6.13 -0.32,0.26 -0.54,0.46 -0.84,0.69l-1.56 1.37c-1.49,1.15 -4.35,4.45 -5.57,6.07 -0.44,0.59 -0.83,1.12 -1.24,1.7l-2.28 3.48c-0.36,0.62 -0.64,1.27 -1.03,1.91 -1.51,2.52 -3.35,7.75 -4.04,10.52 -0.81,3.24 -1.09,5.47 -1.36,8.76 -0.04,0.54 -0.21,0.7 -0.21,1.32z"/>
    <path class="fil3" d="M83.37 103.36l0 4.46c0,2.4 0.44,4.56 0.43,6.96 -0.01,3.44 0.61,10.34 1.15,13.64 0.38,2.31 2.67,5.17 3.82,7.28l2.61 4.78c0.66,0.87 1.27,1.75 2.02,2.55l3.1 3.43c1.21,1.26 2.52,2.41 3.7,3.69l4.56 4.68c1.24,1.23 2.29,2.64 3.68,3.71 0.39,0.3 0.6,0.59 0.94,0.91 0.23,0.21 0.27,0.2 0.49,0.39 0.2,0.17 0.3,0.3 0.49,0.48 1.6,1.49 3.39,2.81 5.1,4.15 0.42,0.34 0.37,0.8 0.44,1.4 0.06,0.48 0.15,1.14 0.2,1.66l0.77 6.62c0.14,1.34 0.27,1.14 1.87,1.83 4,1.71 9.69,2.57 14.92,2.24l0.81 -0.04c2.05,-0.02 8.5,-0.65 8,-3.63l-1.64 -8.15c-0.23,-1 -1.33,-5.53 -1.35,-6.49 -0.9,0.21 -1.49,1.1 -2.39,1.31l0.31 -6.43c0.24,-2.79 0.58,-3.24 -1.3,-6.51 -0.52,-0.92 -1.26,-1.8 -1.93,-2.63 -0.25,-0.31 -0.47,-0.46 -0.73,-0.79 -0.45,-0.58 -0.9,-1.03 -1.44,-1.5l-4.02 -3.59c-0.28,-0.28 -0.51,-0.42 -0.81,-0.71 -1.95,-1.8 -4.11,-3.45 -6.09,-5.22 -2.15,-1.91 -4.81,-4.03 -6.8,-6.03l-3.1 -2.89c-4.9,-4.93 -5.68,-7.24 -9.35,-11.74 -0.9,-1.11 -1.79,-2.31 -2.89,-3.2 -0.59,-0.47 -1.08,-0.9 -1.74,-1.31 -2.14,-1.34 -4.81,-0.97 -5.8,1.53 -1.29,3.24 -0.19,7.54 1.14,10.53 2.31,5.19 8.74,11.09 10.07,15.27 0.68,2.17 1.07,4.39 1.79,6.58 0.71,2.16 1.19,4.35 2.02,6.46 0.92,2.3 6.21,9.68 6.42,10.44 -1.6,-1.08 -2.91,-2.43 -4.22,-3.84 -0.88,-0.94 -1.63,-1.99 -2.37,-3.06 -1.14,-1.64 -2.14,-3.33 -3.02,-5.13 -1.79,-3.7 -3.37,-13.05 -6.51,-15.14 -2,-1.34 -3.07,-3.09 -4.26,-5.08 -1,-1.68 -2.41,-4.58 -3.17,-6.4 -1.9,-4.54 -1.53,-12.11 1.83,-14.61 1.35,-1.01 3.2,-1.33 5.08,-1.33 0.6,0 0.64,0.11 1.2,0.11 -0.03,-0.34 -0.32,-1.01 -0.44,-1.31 -0.91,-2.28 -1.05,-4.24 -0.86,-6.73l0.18 -3.46c-0.05,-0.55 -0.05,-1.59 -0.22,-2.18 -0.08,-0.29 -0.29,-0.62 -0.29,-1 0,-1.89 1.74,-2.58 1.74,-7.51 0,-2.54 -0.02,-5.2 -0.83,-7.54 -0.76,-2.19 -2.12,-4.58 -4.09,-2.15 -0.71,0.88 -3.41,5.27 -4.07,6.37 -1.1,1.86 -1.69,3.64 -2.08,5.85 -0.27,1.6 -3.07,16.39 -3.07,18.02z"/>
    <path class="fil3" d="M211.8 89.77c0,1.26 -0.33,2.13 -0.33,3.26l0.13 3.57c0.25,2.39 0.23,2.64 -0.27,5.11 -0.2,1.03 -0.62,2.2 -0.62,3.29 2.78,0 5.54,0.44 6.73,1.75 1.91,2.11 2.62,5.07 2.62,8.36 0,3.82 -3.12,10.14 -4.72,12.57 -0.16,0.24 -0.22,0.38 -0.37,0.61 -0.17,0.27 -0.29,0.4 -0.45,0.63l-0.92 1.26c-1.63,2.06 -2.57,1.99 -4.08,4.62 -0.54,0.93 -0.95,1.97 -1.36,2.99 -0.85,2.12 -1.56,4.05 -2.3,6.29 -0.82,2.44 -1.27,3.95 -2.54,6.16 -0.79,1.37 -1.69,2.63 -2.63,3.89 -0.8,1.08 -2.09,2.58 -3.06,3.47 -0.72,0.68 -1.54,1.43 -2.36,1.99 0.11,-0.43 1.51,-2.55 1.78,-3l3.55 -6.03c1.54,-2.85 1.9,-3.69 2.71,-6.96 0.33,-1.29 0.7,-2.61 0.99,-3.9 0.35,-1.53 0.88,-4.14 1.8,-5.39l4.07 -5.61c0.32,-0.46 0.64,-0.94 0.97,-1.41 0.67,-0.93 1.33,-1.87 1.96,-2.83l1.89 -3.01c0.79,-1.45 0.95,-1.78 1.33,-3.45 0.37,-1.59 0.59,-3.02 0.62,-4.76 0.02,-1.1 -0.21,-2.43 -0.81,-3.33 -0.17,-0.26 -0.33,-0.45 -0.54,-0.66 -2.08,-2.15 -4.41,-1.43 -6.43,0.61 -2.51,2.54 -4.42,5.54 -6.41,8.49 -0.98,1.46 -2.43,2.81 -3.09,3.66 -0.44,0.57 -0.85,0.88 -1.32,1.39 -0.26,0.28 -0.32,0.43 -0.6,0.71l-5.99 5.54c-0.2,0.17 -0.22,0.15 -0.42,0.33 -2.13,1.9 -4.4,3.65 -6.53,5.55l-8.08 6.92c-1.96,1.51 -5.21,5.21 -5.91,7.69 -0.63,2.2 -0.23,4.98 -0.12,7.16 0.06,1.31 0.33,2.56 0.33,3.92 -0.8,-0.22 -1.67,-1 -2.5,-1.2 -0.28,1.19 -0.56,2.46 -0.77,3.7 -0.41,2.53 -1.09,4.99 -1.56,7.56 -0.13,0.7 -0.26,1.35 -0.36,1.93 -0.36,2.09 -1.5,3.74 5.11,4.62 0.64,0.08 1.12,0.11 1.75,0.2 0.55,0.07 1.4,0.16 1.91,0.15 1.35,0 2.47,0.22 3.92,0.22 4.27,0 9.6,-1.67 12.4,-3.15 0,-1.56 0.66,-6.07 0.89,-7.92 0.09,-0.75 0.3,-1.96 0.3,-2.74 0.68,-0.36 3.58,-2.58 4.22,-3.18l2.77 -2.56c0.2,-0.2 0.34,-0.35 0.54,-0.54l1.69 -1.58c0.72,-0.71 1.38,-1.44 2.12,-2.12 1.27,-1.18 2.59,-2.36 3.7,-3.69 1.26,-1.51 4.5,-4.31 5.78,-5.97 0.59,-0.77 1.31,-1.34 1.97,-2.26 1.53,-2.12 2.73,-4.48 4.07,-6.71 0.54,-0.9 1.03,-1.71 1.59,-2.65l1.42 -2.81c1.1,-2.34 1.34,-4.6 1.45,-7.14 0.06,-1.29 0.26,-2.58 0.33,-3.92l0.98 -11.85c0.03,-2.03 0.28,-1.36 0.02,-3.83 -0.63,-5.92 -1.91,-12.41 -3.08,-18.24 -0.23,-1.17 -0.41,-2.37 -0.86,-3.49 -0.78,-1.98 -1.95,-3.81 -3.09,-5.5 -0.59,-0.89 -1.12,-1.69 -1.69,-2.55 -0.7,-1.04 -1.02,-1.58 -2.07,-2.28 -0.6,0.52 -0.95,0.73 -1.43,1.5 -1.21,1.93 -2.38,4.19 -2.48,6.55 -0.28,6 1.74,7.55 1.74,10z"/>
    <path class="fil4" d="M117.99 59.25c-0.1,0.63 0.12,0.77 0.81,1.61 0.74,0.9 1.76,1.76 2.96,2.16 1.02,0.34 2.02,-0.03 2.26,0.68 0.07,0.21 -0.01,0.11 0.1,0.33 0.26,0.51 1.39,0.6 1.93,0.66 1.51,0.18 2.14,-0.4 2.99,-0.39 0.36,1 0.01,1.91 1.34,2.18 1.09,0.22 2.06,-0.38 3.05,-0.43 0.47,0.94 0.72,1.48 1.97,1.8 0.61,0.15 1.22,0.05 1.7,-0.13 0.48,-0.18 1.18,-0.66 1.47,-0.41 0.1,0.09 0.38,1.85 2.31,1.69 1.36,-0.12 1.93,-1.02 2.73,-1.36 0.52,0.41 0.95,1.62 3.27,1.52 1.41,-0.06 2.64,-0.7 3.59,-1.23l0 -6.79c-1.09,0.02 -1.87,0.42 -2.57,-0.35 -1.02,-1.12 -1.82,-4.25 -3.08,-5.72 -2.51,-2.96 -5.52,-0.73 -8.31,0.74 -4.69,2.47 -7.89,4.5 -13.45,4.25 -1.82,-0.08 -3.28,-1.2 -5.07,-0.81z"/>
    <path class="fil4" d="M155.1 61.12l0 6.83c1.1,0.5 2.1,1.15 3.63,1.21 0.78,0.03 1.42,-0.07 2.02,-0.42 0.67,-0.4 0.77,-0.79 1.24,-1.13 0.89,0.62 2.74,2.24 4.3,0.9 0.59,-0.5 0.41,-0.73 0.76,-1.3 0.84,-0.02 2.3,1.59 4.29,0.05 0.38,-0.3 0.51,-0.7 0.76,-1.2 1.28,-0.02 4.21,1.88 4.34,-1.77 1.01,0.01 1.5,0.57 3.03,0.41 2.38,-0.26 1.82,-0.78 2.12,-1.32 1.47,-0.34 1.85,0.08 3.71,-1.19 0.56,-0.39 0.91,-0.73 1.29,-1.21 0.53,-0.65 0.76,-0.66 0.73,-1.8 -2.56,-0.21 -4.14,1.95 -10.27,0.32 -7.36,-1.97 -12.82,-8.84 -16.34,-4.39 -1.3,1.64 -2.13,4.77 -3.06,5.75 -0.65,0.69 -1.64,0.33 -2.55,0.26z"/>
    <path class="fil4" d="M154.46 93.08c2.87,1.02 1.5,2.1 5.46,-0.71 1.29,-0.92 3.45,-2.6 3.41,-5.1 -0.07,-4.54 -7.07,-5.99 -10.55,-6.45 -2.46,-0.33 -5.41,-0.17 -7.86,-0.62 -2.2,-0.39 -4.6,-1.13 -6.24,-2.24 -0.6,-0.41 -1.79,-1.75 -0.72,-2.65 0.72,-0.61 2.84,-0.38 3.92,-0.31 1.52,0.1 1.81,0.59 3.06,1.17 1.13,0.53 5.08,0.1 4,-1.51 -1.54,-2.27 -2.28,-2.02 -4.46,-1.97 -2.13,0.05 -5.75,0.32 -7.39,1.09 -2.67,1.27 -1.84,3.8 -0.14,5.15 7.9,6.25 14.53,3.49 19.83,5.61 1.52,0.6 4.19,2.69 2.77,4.97 -0.7,1.13 -2.41,1.87 -3.77,2.64 -0.25,0.15 -0.51,0.29 -0.69,0.39 -0.59,0.34 -0.48,0.26 -0.63,0.54z"/>
    <path class="fil4" d="M154.6 105.65c0.43,0.2 0.5,0.44 0.93,0.3 0.48,-0.16 3.83,-3.27 3.92,-5.62 0.12,-3.11 -2.06,-5.15 -4.73,-6.23 -3.1,-1.24 -10.48,-3.31 -8.87,-7.19 0.49,-1.17 1.74,-2.16 2.89,-2.66 -0.33,-0.32 -3.08,-0.58 -3.68,-0.69 -0.66,-0.11 -0.75,-0.13 -1.13,0.21 -0.89,0.8 -2.05,2.14 -1.84,4.04 0.65,5.65 11.07,7.26 13.91,9.8 2.03,1.81 1.41,4.17 -0.57,5.83 -1.01,0.84 -0.95,0.4 -0.83,2.21z"/>
    <path class="fil4" d="M151.48 79.83l2.69 0.31 0.38 -24.92c-0.68,0.18 -0.98,0.49 -1.8,0.47 -0.85,-0.02 -1.02,-0.35 -1.6,-0.46 -0.15,1.4 0.17,15.64 0.19,18.45 0.01,1.16 -0.07,5.3 0.14,6.15z"/>
    <path class="fil4" d="M165.69 74.96c1.01,0 1.75,-0.09 2.17,0.69 1.38,2.59 -5.56,4.21 -7.18,4.54 -0.65,0.13 -4.15,0.37 -4.31,0.45 0.29,0.21 1.96,0.75 2.4,0.92 0.42,0.17 2.26,1.01 2.37,1.03 0.84,0.15 4.26,-1.42 4.93,-1.79 1.55,-0.87 2.88,-1.82 3.58,-3.16 1.18,-2.22 0.4,-3.13 -1.63,-3.9 -1.56,-0.59 -3.9,-0.82 -5.76,-1.01 -2.61,-0.26 -3.54,-0.58 -5.02,1.2 -0.49,0.6 -1.36,1.49 -0.04,2.03 2.89,1.18 4.18,-0.55 5.32,-0.81 0.69,-0.17 2.35,-0.19 3.17,-0.19z"/>
    <path class="fil4" d="M154.38 113.68c-0.02,0.58 -0.13,1.27 0.03,1.83 0.4,0.15 0.4,0.23 0.75,-0.04 0.56,-0.43 1.12,-1.13 1.54,-1.74 0.64,-0.92 1.1,-2.04 0.81,-3.47 -0.79,-3.93 -6.72,-4.74 -8.78,-8.65 -1.64,-3.08 1.62,-4.31 2.21,-5.42 -0.35,-0.29 -0.93,-0.55 -1.4,-0.81 -0.74,-0.41 -0.99,0.06 -1.41,0.43 -0.55,0.49 -1.52,1.56 -1.86,2.5 -0.95,2.64 0.97,5.13 2.09,6.29 1.38,1.44 3.36,2.37 4.99,3.7 1.28,1.05 3.81,3.65 1.03,5.38z"/>
    <path class="fil4" d="M152.03 48.01c-0.63,0.67 -0.98,0.24 -1.93,1.49 -1.8,2.35 0.44,5.98 3.52,5.16 1.57,-0.41 2.97,-2.05 2.39,-4.14 -0.53,-1.86 -3.39,-3.14 -3.98,-2.51z"/>
    <path class="fil4" d="M154.21 121.31l-0.01 3.75c0.46,-0.16 0.96,-1.39 1.17,-1.99 0.33,-0.93 0.48,-1.78 0.47,-2.85 -0.05,-4.87 -4.17,-4.73 -5.75,-7.57 -0.49,-0.89 -0.43,-1.79 0.12,-2.58 0.88,-1.27 0.99,-0.24 0.91,-2.48l-0.85 -0.51c-0.98,0.57 -2.2,1.83 -2.42,3.38 -0.43,2.94 2.6,4.97 4.63,6.76 1.38,1.21 1.74,1.51 1.73,4.09z"/>
    <path class="fil4" d="M151.55 91.84c0.29,0.21 2.08,0.96 2.46,0.96 0.02,-1.24 0.18,-7.48 0.04,-8.14l-2.54 -0.35 0.04 7.53z"/>
    <path class="fil4" d="M153.84 104.93l0.07 -7.55 -2.27 -1.27 0.04 6.83c0,0.71 -0.07,0.67 0.41,0.97 0.44,0.27 1.27,0.93 1.75,1.02z"/>
    <path class="fil4" d="M151.8 113.25c0.32,0.28 1.5,1.23 1.9,1.3l0.05 -5.11 -1.96 -1.44 0.01 5.25z"/>
   </g>
  </g>
 </g>
</svg>
