<?xml version="1.0" encoding="UTF-8"?>
<!DOCTYPE svg PUBLIC "-//W3C//DTD SVG 1.0//EN" "http://www.w3.org/TR/2001/REC-SVG-20010904/DTD/svg10.dtd">
<!-- Creator: CorelDRAW 2020 (64-Bit) -->
<svg xmlns="http://www.w3.org/2000/svg" xml:space="preserve" width="307px" height="248px" version="1.0" style="shape-rendering:geometricPrecision; text-rendering:geometricPrecision; image-rendering:optimizeQuality; fill-rule:evenodd; clip-rule:evenodd"
viewBox="0 0 307 247.96"
 xmlns:xlink="http://www.w3.org/1999/xlink"
 xmlns:xodm="http://www.corel.com/coreldraw/odm/2003">
 <defs>
  <style type="text/css">
   <![CDATA[
    .fil0 {fill:#00A859}
    .fil2 {fill:#B01117}
    .fil3 {fill:#FFFEFE}
    .fil1 {fill:white}
   ]]>
  </style>
 </defs>
 <g id="Capa_x0020_1">
  <metadata id="CorelCorpID_0Corel-Layer"/>
  <g id="_2232393534336">
   <path class="fil0" d="M231.51 144.99c-16.05,70.97 -107.03,80.74 -141.04,29.3 -44.49,-67.28 15.24,-137.7 80.27,-123.95 37.42,7.9 71.54,47.02 60.77,94.65zm-204.83 -105.01c-0.88,11.41 24.41,22.19 27,34.56 -7.87,-0.38 -12.45,-7.81 -21.55,-16.88 -3.22,-3.21 -16.67,-19.92 -19.71,-14.31 -2.12,3.92 12.96,16.65 15.93,19.58l14.49 14.31c3.65,4.15 3.25,2.11 2.05,6.55 -8.96,1.01 -30.16,-34.42 -39.9,-32.91 -4.11,6.6 2.25,9.32 14.13,21.3 3.66,3.69 16.71,14.28 16.64,18.88 -5.99,2.12 -8.65,-3.39 -17.36,-12.13 -4.04,-4.05 -11.14,-14.01 -17.25,-13.47 -0.02,0.1 -3.98,0.6 1.93,7.56 1.68,1.98 4.19,3.92 6.22,5.96 4.41,4.4 7.69,7.66 12.05,12.08 7.14,7.23 15.72,16.93 30.56,10.57 6.27,3.53 9.05,7.35 14.39,10.87 0.83,36.55 1.06,49.72 21.49,73.53 12.83,14.95 34.95,29.71 65.18,30.11 28.9,0.38 48.47,-10.97 66.22,-29.13 18.09,-18.51 24.45,-39.3 22.72,-72.19l13.36 -13.54c20.11,5.58 30.14,-1.25 38.22,-13.49 5.69,-8.62 19.71,-30.68 9.11,-42.64 -13.14,-14.83 -71.19,12.53 -57,44.86l-7.23 8.91c-8,-12.81 -10.54,-26.41 -29,-40.48 -46.36,-35.34 -110.13,-18.37 -133.23,27.85 -1.88,3.78 -4.02,8.93 -6.13,12.25l-7.05 -7.79c7.62,-18.75 -6.79,-27.33 -21.59,-42.34 -11.91,-12.07 -8.63,-9.13 -13.35,-8.77 -0.33,0.02 -0.9,0.19 -1.34,0.34z"/>
   <path class="fil1" d="M81.06 135.94c-4.27,-43.67 27.17,-77.21 64.51,-81.28 43.47,-4.73 77.54,26.25 81.78,64.62 8.73,79.01 -90.9,107.73 -129.88,55.57l-7.17 -10.45c-4.61,-7.54 -8.22,-17.95 -9.24,-28.46zm150.45 9.05c10.77,-47.63 -23.35,-86.75 -60.77,-94.65 -65.03,-13.75 -124.76,56.67 -80.27,123.95 34.01,51.44 124.99,41.67 141.04,-29.3z"/>
   <path class="fil2" d="M74.35 125.44l0 5.93c0,0.94 0.26,1.25 0.33,1.99 0.66,6.09 0.59,7.89 2.22,14.49 1.23,5.02 2.97,9.82 5.05,14.15 1.72,3.57 2.05,4.32 4.1,7.75 6.43,10.74 17,21.19 27.62,27.31 1.02,0.59 2.02,1.19 3.1,1.74 0.65,0.33 0.86,0.54 1.5,0.85 9.43,4.6 17.5,6.83 27.94,8.14 8.82,1.11 19.34,0.19 27.95,-2.1 3.82,-1.02 10.21,-3.16 13.65,-4.85 1.01,-0.5 1.93,-0.97 2.98,-1.5 1.13,-0.56 1.92,-1.08 3,-1.67 3.94,-2.15 7.54,-4.85 11.07,-7.6l4.95 -4.39c0.99,-0.76 1.35,-1.48 2.18,-2.3 3.61,-3.6 6.46,-7.52 9.27,-11.73 5.57,-8.33 9.48,-18.17 11.35,-28.15 0.26,-1.43 0.48,-2.49 0.69,-3.98 0.81,-5.66 0.46,-12.16 0.46,-18.03 0,-2.07 -0.75,-5.91 -1.1,-8.05 -0.42,-2.52 -1.14,-5.1 -1.83,-7.5 -2.33,-8.09 -6.42,-16.69 -11.46,-23.55 -3.06,-4.18 -3.94,-5.38 -7.38,-8.96 -0.48,-0.5 -0.58,-0.8 -1.07,-1.26 -0.48,-0.45 -0.76,-0.57 -1.26,-1.07 -0.44,-0.44 -0.73,-0.74 -1.17,-1.18 -0.5,-0.5 -0.77,-0.62 -1.26,-1.07 -0.51,-0.48 -0.62,-0.64 -1.22,-1.11 -0.46,-0.36 -0.82,-0.67 -1.28,-1.06 -1.69,-1.42 -3.45,-2.79 -5.29,-4.04l-11.92 -6.75c-2.58,-1.07 -3.69,-1.68 -6.65,-2.68 -6.17,-2.08 -12.53,-3.74 -19.11,-4.23l-4.29 -0.37c-2.47,0 -6.35,-0.14 -8.61,0.19l-6.44 0.74c-4.84,0.68 -10.73,2.12 -15.19,3.84 -2.4,0.93 -4.52,1.65 -6.87,2.83 -6.73,3.36 -10.33,5.47 -16.09,10.11 -0.53,0.43 -0.9,0.76 -1.38,1.14l-2.59 2.26c-2.46,1.9 -7.18,7.34 -9.18,10.02 -0.73,0.98 -1.38,1.85 -2.05,2.8l-3.77 5.75c-0.59,1.03 -1.06,2.09 -1.69,3.15 -2.5,4.17 -5.53,12.79 -6.68,17.38 -1.34,5.35 -1.8,9.01 -2.23,14.46 -0.07,0.89 -0.35,1.14 -0.35,2.16z"/>
   <path class="fil3" d="M95.07 85.47c-0.18,1.04 0.19,1.27 1.33,2.66 1.22,1.49 2.91,2.9 4.88,3.56 1.69,0.56 3.34,-0.04 3.73,1.13 0.12,0.34 -0.01,0.17 0.18,0.54 0.42,0.84 2.29,0.98 3.17,1.09 2.51,0.29 3.54,-0.66 4.94,-0.64 0.6,1.64 0.01,3.15 2.22,3.59 1.79,0.37 3.39,-0.62 5.02,-0.71 0.79,1.55 1.19,2.44 3.26,2.97 1,0.26 2.02,0.09 2.81,-0.22 0.79,-0.29 1.94,-1.08 2.42,-0.66 0.17,0.14 0.63,3.05 3.82,2.78 2.24,-0.19 3.19,-1.67 4.51,-2.25 0.86,0.69 1.56,2.68 5.39,2.52 2.32,-0.1 4.36,-1.16 5.92,-2.03l0.01 -11.21c-1.8,0.02 -3.09,0.7 -4.24,-0.57 -1.69,-1.87 -3.01,-7.03 -5.08,-9.46 -4.15,-4.88 -9.13,-1.2 -13.72,1.22 -7.74,4.09 -13.04,7.44 -22.22,7.03 -3,-0.13 -5.4,-1.98 -8.35,-1.34z"/>
   <path class="fil3" d="M156.32 88.56l0.01 11.27c1.81,0.82 3.46,1.9 5.98,2 1.3,0.05 2.35,-0.11 3.34,-0.69 1.11,-0.66 1.27,-1.31 2.05,-1.87 1.46,1.02 4.51,3.7 7.09,1.49 0.97,-0.84 0.68,-1.2 1.26,-2.15 1.39,-0.03 3.8,2.62 7.08,0.08 0.63,-0.49 0.85,-1.15 1.25,-1.97 2.12,-0.04 6.95,3.09 7.17,-2.93 1.67,0.02 2.48,0.94 5.01,0.67 3.92,-0.42 2.99,-1.28 3.49,-2.18 2.42,-0.55 3.05,0.14 6.12,-1.97 0.93,-0.63 1.5,-1.19 2.14,-1.98 0.87,-1.08 1.25,-1.09 1.2,-2.97 -4.23,-0.36 -6.83,3.22 -16.95,0.52 -12.16,-3.25 -21.17,-14.59 -26.98,-7.25 -2.14,2.71 -3.52,7.88 -5.04,9.49 -1.09,1.14 -2.72,0.55 -4.22,0.44z"/>
   <path class="fil3" d="M155.27 141.31c4.73,1.68 2.47,3.48 9,-1.16 2.14,-1.52 5.71,-4.3 5.64,-8.42 -0.13,-7.5 -11.68,-9.9 -17.43,-10.66 -4.05,-0.54 -8.92,-0.28 -12.96,-1.01 -3.63,-0.65 -7.59,-1.87 -10.3,-3.71 -1,-0.67 -2.96,-2.88 -1.2,-4.37 1.19,-1.01 4.69,-0.62 6.47,-0.51 2.51,0.16 3,0.97 5.06,1.93 1.86,0.87 8.38,0.16 6.59,-2.49 -2.53,-3.76 -3.76,-3.33 -7.35,-3.25 -3.51,0.08 -9.5,0.52 -12.19,1.8 -4.42,2.1 -3.05,6.27 -0.24,8.49 13.04,10.33 23.98,5.78 32.74,9.27 2.5,0.99 6.91,4.44 4.57,8.19 -1.16,1.88 -3.98,3.09 -6.23,4.37 -0.41,0.24 -0.83,0.48 -1.14,0.65 -0.96,0.55 -0.79,0.43 -1.03,0.88z"/>
   <path class="fil3" d="M155.5 162.07c0.7,0.32 0.83,0.72 1.52,0.49 0.81,-0.26 6.33,-5.4 6.48,-9.28 0.21,-5.13 -3.4,-8.5 -7.81,-10.28 -5.11,-2.05 -17.3,-5.47 -14.63,-11.87 0.8,-1.92 2.87,-3.57 4.77,-4.39 -0.56,-0.53 -5.08,-0.96 -6.09,-1.13 -1.08,-0.19 -1.23,-0.23 -1.87,0.34 -1.46,1.33 -3.38,3.53 -3.02,6.66 1.07,9.33 18.27,12 22.96,16.18 3.35,2.98 2.32,6.89 -0.94,9.62 -1.67,1.39 -1.56,0.68 -1.37,3.66z"/>
   <path class="fil3" d="M150.35 119.44l4.44 0.51 0.63 -41.13c-1.13,0.29 -1.62,0.8 -2.98,0.77 -1.4,-0.04 -1.68,-0.58 -2.64,-0.76 -0.24,2.31 0.28,25.81 0.31,30.45 0.01,1.93 -0.12,8.77 0.24,10.16z"/>
   <path class="fil3" d="M173.8 111.39c1.67,0 2.89,-0.14 3.58,1.16 2.28,4.26 -9.16,6.95 -11.85,7.48 -1.07,0.22 -6.85,0.61 -7.11,0.74 0.47,0.35 3.24,1.24 3.97,1.53 0.69,0.28 3.71,1.67 3.91,1.7 1.39,0.24 7.03,-2.34 8.13,-2.96 2.55,-1.44 4.75,-3.01 5.92,-5.21 1.95,-3.67 0.66,-5.18 -2.71,-6.44 -2.57,-0.97 -6.43,-1.35 -9.5,-1.66 -4.3,-0.44 -5.84,-0.97 -8.28,1.98 -0.82,0.98 -2.25,2.45 -0.07,3.35 4.77,1.95 6.9,-0.91 8.78,-1.35 1.15,-0.27 3.89,-0.32 5.23,-0.32z"/>
   <path class="fil3" d="M155.13 175.32c-0.03,0.96 -0.22,2.1 0.05,3.02 0.67,0.25 0.66,0.39 1.25,-0.06 0.92,-0.71 1.84,-1.88 2.53,-2.87 1.05,-1.52 1.82,-3.37 1.35,-5.74 -1.31,-6.48 -11.1,-7.82 -14.51,-14.27 -2.7,-5.1 2.69,-7.12 3.65,-8.96 -0.58,-0.47 -1.53,-0.9 -2.31,-1.33 -1.21,-0.67 -1.63,0.1 -2.33,0.71 -0.9,0.8 -2.5,2.57 -3.06,4.12 -1.57,4.37 1.6,8.48 3.44,10.4 2.28,2.37 5.56,3.91 8.25,6.11 2.11,1.73 6.28,6.01 1.69,8.87z"/>
   <path class="fil3" d="M151.25 66.92c-1.03,1.11 -1.61,0.39 -3.18,2.45 -2.97,3.88 0.72,9.88 5.81,8.53 2.6,-0.69 4.91,-3.4 3.94,-6.84 -0.87,-3.08 -5.59,-5.19 -6.57,-4.14z"/>
   <path class="fil3" d="M154.85 187.91l-0.02 6.19c0.76,-0.25 1.59,-2.28 1.94,-3.27 0.54,-1.54 0.8,-2.95 0.78,-4.71 -0.09,-8.04 -6.89,-7.81 -9.49,-12.49 -0.82,-1.48 -0.71,-2.96 0.19,-4.27 1.46,-2.09 1.63,-0.4 1.5,-4.09l-1.4 -0.84c-1.61,0.94 -3.63,3.02 -4,5.57 -0.7,4.85 4.29,8.21 7.65,11.17 2.28,2 2.86,2.48 2.85,6.74z"/>
   <path class="fil3" d="M150.46 139.26c0.48,0.36 3.44,1.59 4.07,1.59 0.02,-2.05 0.29,-12.34 0.06,-13.43l-4.2 -0.58 0.07 12.42z"/>
   <path class="fil3" d="M154.25 160.87l0.11 -12.45 -3.76 -2.11 0.07 11.28c0,1.18 -0.11,1.11 0.69,1.6 0.72,0.44 2.09,1.54 2.89,1.68z"/>
   <path class="fil3" d="M150.88 174.61c0.52,0.47 2.47,2.03 3.13,2.14l0.09 -8.43 -3.25 -2.37 0.03 8.66z"/>
  </g>
 </g>
</svg>
