<?xml version="1.0" encoding="UTF-8"?>
<!DOCTYPE svg PUBLIC "-//W3C//DTD SVG 1.0//EN" "http://www.w3.org/TR/2001/REC-SVG-20010904/DTD/svg10.dtd">
<!-- Creator: CorelDRAW 2020 (64-Bit) -->
<svg xmlns="http://www.w3.org/2000/svg" xml:space="preserve" width="307px" height="248px" version="1.0" style="shape-rendering:geometricPrecision; text-rendering:geometricPrecision; image-rendering:optimizeQuality; fill-rule:evenodd; clip-rule:evenodd"
viewBox="0 0 307 247.96"
 xmlns:xlink="http://www.w3.org/1999/xlink"
 xmlns:xodm="http://www.corel.com/coreldraw/odm/2003">
 <defs>
  <style type="text/css">
   <![CDATA[
    .fil0 {fill:#231F20}
    .fil3 {fill:#7D7D7D}
    .fil2 {fill:#B01117}
    .fil4 {fill:#FFFEFE}
    .fil1 {fill:white}
   ]]>
  </style>
 </defs>
 <g id="Capa_x0020_1">
  <metadata id="CorelCorpID_0Corel-Layer"/>
  <g id="_2232507252080">
   <path class="fil0" d="M229.73 152.01c-15.68,69.34 -104.57,78.88 -137.8,28.62 -43.46,-65.73 14.9,-134.53 78.43,-121.11 36.56,7.73 69.89,45.95 59.37,92.49zm-200.12 -102.61c-0.86,11.15 23.84,21.69 26.37,33.77 -7.68,-0.37 -12.16,-7.63 -21.05,-16.49 -3.15,-3.14 -16.29,-19.47 -19.26,-13.98 -2.07,3.82 12.67,16.26 15.57,19.13l14.16 13.97c3.56,4.06 3.17,2.07 2,6.41 -8.75,0.98 -29.47,-33.63 -38.98,-32.15 -4.02,6.45 2.19,9.1 13.8,20.8 3.58,3.61 16.32,13.96 16.26,18.46 -5.86,2.06 -8.46,-3.32 -16.96,-11.86 -3.95,-3.96 -10.89,-13.69 -16.86,-13.16 -0.02,0.1 -3.89,0.58 1.89,7.39 1.64,1.93 4.09,3.83 6.08,5.82 4.3,4.3 7.51,7.49 11.77,11.8 6.97,7.07 15.36,16.55 29.86,10.33 6.13,3.45 8.84,7.18 14.06,10.62 0.81,35.71 1.03,48.58 20.99,71.84 12.54,14.61 34.15,29.03 63.69,29.42 28.23,0.37 47.36,-10.72 64.69,-28.46 17.68,-18.09 23.89,-38.4 22.2,-70.53l13.06 -13.23c19.65,5.45 29.45,-1.22 37.34,-13.18 5.56,-8.43 19.25,-29.98 8.9,-41.66 -12.84,-14.49 -69.55,12.24 -55.69,43.83l-7.06 8.7c-7.82,-12.52 -10.3,-25.81 -28.34,-39.55 -45.29,-34.53 -107.6,-17.95 -130.17,27.21 -1.84,3.7 -3.93,8.73 -5.98,11.98l-6.9 -7.62c7.45,-18.32 -6.63,-26.7 -21.09,-41.36 -11.63,-11.8 -8.43,-8.93 -13.04,-8.58 -0.33,0.03 -0.89,0.19 -1.31,0.33z"/>
   <path class="fil1" d="M82.74 143.16c-4.18,-42.66 26.54,-75.44 63.03,-79.41 42.46,-4.62 75.76,25.64 79.9,63.13 8.52,77.2 -88.82,105.26 -126.9,54.29l-7 -10.2c-4.51,-7.37 -8.03,-17.54 -9.03,-27.81zm146.99 8.85c10.52,-46.54 -22.81,-84.76 -59.37,-92.49 -63.53,-13.42 -121.89,55.38 -78.43,121.11 33.23,50.26 122.12,40.72 137.8,-28.62z"/>
   <g>
    <path class="fil2" d="M112.55 112.69l0 3.14c0,0.5 0.14,0.67 0.18,1.06 0.35,3.22 0.31,4.18 1.17,7.67 0.66,2.66 1.58,5.2 2.68,7.49 0.91,1.89 1.08,2.29 2.17,4.11 3.4,5.68 9,11.22 14.62,14.46 0.55,0.31 1.07,0.63 1.65,0.92 0.34,0.17 0.45,0.28 0.79,0.45 5,2.43 9.27,3.62 14.79,4.31 4.67,0.59 10.25,0.1 14.8,-1.12 2.02,-0.53 5.41,-1.66 7.23,-2.56 0.53,-0.26 1.02,-0.52 1.58,-0.79 0.6,-0.3 1.02,-0.58 1.59,-0.89 2.08,-1.14 3.99,-2.57 5.86,-4.02l2.62 -2.33c0.52,-0.4 0.71,-0.78 1.16,-1.22 1.91,-1.9 3.42,-3.98 4.91,-6.21 2.94,-4.41 5.01,-9.62 6,-14.9 0.14,-0.76 0.26,-1.32 0.37,-2.11 0.43,-3 0.24,-6.44 0.24,-9.55 0,-1.09 -0.39,-3.13 -0.58,-4.26 -0.22,-1.34 -0.61,-2.7 -0.97,-3.97 -1.23,-4.29 -3.4,-8.84 -6.07,-12.47 -1.62,-2.21 -2.08,-2.85 -3.9,-4.74 -0.26,-0.27 -0.31,-0.43 -0.57,-0.67 -0.25,-0.24 -0.4,-0.3 -0.67,-0.57 -0.23,-0.23 -0.39,-0.39 -0.62,-0.62 -0.26,-0.27 -0.41,-0.33 -0.66,-0.57 -0.28,-0.25 -0.34,-0.34 -0.65,-0.59 -0.24,-0.19 -0.44,-0.36 -0.68,-0.56 -0.89,-0.75 -1.83,-1.47 -2.8,-2.14l-6.31 -3.57c-1.37,-0.57 -1.95,-0.89 -3.52,-1.42 -3.27,-1.1 -6.64,-1.98 -10.12,-2.24l-2.28 -0.2c-1.3,0 -3.36,-0.07 -4.55,0.1l-3.41 0.39c-2.56,0.37 -5.69,1.13 -8.05,2.04 -1.27,0.49 -2.39,0.87 -3.63,1.49 -3.57,1.79 -5.47,2.9 -8.52,5.36 -0.28,0.23 -0.48,0.41 -0.73,0.6l-1.37 1.2c-1.31,1 -3.8,3.89 -4.87,5.31 -0.38,0.52 -0.73,0.97 -1.08,1.48l-2 3.04c-0.31,0.55 -0.56,1.11 -0.89,1.67 -1.33,2.21 -2.93,6.77 -3.54,9.2 -0.71,2.84 -0.95,4.78 -1.18,7.66 -0.04,0.47 -0.19,0.61 -0.19,1.14z"/>
    <path class="fil3" d="M93.26 130.09l0 3.9c0,2.09 0.38,3.98 0.38,6.08 -0.01,3.01 0.53,9.04 1,11.92 0.33,2.02 2.33,4.52 3.34,6.36l2.29 4.18c0.57,0.76 1.1,1.54 1.76,2.23l2.7 3c1.07,1.1 2.21,2.11 3.24,3.23l3.99 4.09c1.08,1.07 2,2.3 3.21,3.24 0.34,0.26 0.52,0.51 0.83,0.8 0.19,0.18 0.23,0.17 0.42,0.33 0.18,0.15 0.27,0.27 0.43,0.43 1.4,1.29 2.97,2.45 4.46,3.62 0.37,0.3 0.32,0.7 0.39,1.23 0.05,0.42 0.13,0.99 0.17,1.45l0.67 5.78c0.13,1.17 0.24,1 1.64,1.6 3.49,1.5 8.47,2.25 13.04,1.96l0.71 -0.03c1.78,-0.02 7.42,-0.57 6.99,-3.18l-1.44 -7.13c-0.2,-0.86 -1.16,-4.83 -1.17,-5.66 -0.79,0.18 -1.31,0.96 -2.1,1.14l0.28 -5.62c0.21,-2.44 0.5,-2.83 -1.13,-5.69 -0.47,-0.81 -1.11,-1.57 -1.7,-2.3 -0.21,-0.27 -0.41,-0.4 -0.64,-0.69 -0.39,-0.5 -0.78,-0.9 -1.25,-1.31l-3.52 -3.14c-0.24,-0.24 -0.44,-0.37 -0.71,-0.62 -1.7,-1.58 -3.59,-3.02 -5.32,-4.56 -1.88,-1.67 -4.2,-3.53 -5.94,-5.28l-2.71 -2.51c-4.29,-4.31 -4.97,-6.34 -8.18,-10.27 -0.79,-0.97 -1.56,-2.02 -2.53,-2.8 -0.51,-0.41 -0.94,-0.78 -1.51,-1.14 -1.87,-1.17 -4.21,-0.85 -5.07,1.33 -1.13,2.84 -0.16,6.6 0.99,9.21 2.02,4.53 7.64,9.69 8.8,13.35 0.61,1.9 0.94,3.84 1.57,5.75 0.62,1.89 1.04,3.8 1.77,5.64 0.8,2.02 5.43,8.46 5.61,9.13 -1.4,-0.94 -2.54,-2.12 -3.69,-3.35 -0.77,-0.83 -1.43,-1.74 -2.07,-2.68 -0.99,-1.44 -1.88,-2.91 -2.64,-4.49 -1.57,-3.23 -2.95,-11.4 -5.69,-13.23 -1.75,-1.17 -2.69,-2.7 -3.73,-4.44 -0.87,-1.47 -2.11,-4.01 -2.77,-5.59 -1.66,-3.97 -1.34,-10.59 1.6,-12.77 1.19,-0.89 2.8,-1.17 4.44,-1.17 0.53,0 0.57,0.1 1.05,0.1 -0.03,-0.3 -0.28,-0.88 -0.38,-1.14 -0.8,-2 -0.92,-3.71 -0.76,-5.89l0.16 -3.02c-0.04,-0.48 -0.04,-1.39 -0.18,-1.91 -0.08,-0.25 -0.27,-0.54 -0.27,-0.88 0,-1.64 1.53,-2.24 1.53,-6.56 0,-2.22 -0.01,-4.54 -0.73,-6.59 -0.66,-1.92 -1.85,-4 -3.57,-1.88 -0.63,0.78 -2.99,4.61 -3.56,5.57 -0.96,1.62 -1.48,3.18 -1.82,5.12 -0.24,1.39 -2.68,14.32 -2.68,15.75z"/>
    <path class="fil3" d="M205.52 118.21c0,1.09 -0.29,1.86 -0.29,2.85l0.11 3.12c0.23,2.09 0.2,2.3 -0.23,4.46 -0.18,0.9 -0.54,1.92 -0.54,2.88 2.43,0 4.84,0.39 5.87,1.53 1.68,1.85 2.3,4.43 2.3,7.31 0,3.33 -2.73,8.86 -4.13,10.98 -0.13,0.22 -0.19,0.33 -0.32,0.54 -0.15,0.23 -0.25,0.35 -0.4,0.55l-0.8 1.1c-1.42,1.8 -2.24,1.74 -3.57,4.04 -0.46,0.81 -0.83,1.72 -1.18,2.61 -0.74,1.85 -1.36,3.54 -2.02,5.5 -0.71,2.13 -1.1,3.45 -2.21,5.38 -0.69,1.2 -1.48,2.31 -2.3,3.41 -0.7,0.94 -1.83,2.25 -2.67,3.03 -0.64,0.59 -1.35,1.25 -2.07,1.73 0.1,-0.37 1.32,-2.22 1.56,-2.62l3.1 -5.27c1.35,-2.49 1.66,-3.22 2.37,-6.08 0.29,-1.13 0.61,-2.28 0.87,-3.41 0.3,-1.34 0.76,-3.62 1.56,-4.71l3.56 -4.9c0.29,-0.41 0.57,-0.83 0.86,-1.24 0.57,-0.81 1.15,-1.63 1.71,-2.47l1.65 -2.63c0.69,-1.27 0.83,-1.56 1.16,-3.01 0.32,-1.4 0.52,-2.65 0.54,-4.16 0.02,-0.97 -0.18,-2.13 -0.71,-2.92 -0.15,-0.23 -0.28,-0.39 -0.47,-0.58 -1.82,-1.88 -3.85,-1.25 -5.62,0.54 -2.19,2.22 -3.86,4.84 -5.6,7.42 -0.86,1.28 -2.13,2.46 -2.7,3.19 -0.39,0.51 -0.74,0.77 -1.16,1.22 -0.22,0.25 -0.27,0.38 -0.52,0.62l-5.23 4.84c-0.18,0.15 -0.2,0.14 -0.38,0.3 -1.86,1.65 -3.84,3.19 -5.7,4.84l-7.07 6.06c-1.71,1.32 -4.54,4.55 -5.16,6.71 -0.55,1.93 -0.2,4.36 -0.11,6.27 0.06,1.14 0.29,2.23 0.29,3.42 -0.7,-0.19 -1.46,-0.88 -2.19,-1.05 -0.24,1.04 -0.48,2.15 -0.66,3.24 -0.36,2.21 -0.95,4.36 -1.37,6.61 -0.11,0.6 -0.23,1.17 -0.32,1.68 -0.31,1.83 -1.3,3.27 4.47,4.04 0.56,0.07 0.98,0.1 1.54,0.17 0.47,0.07 1.22,0.14 1.67,0.14 1.17,-0.01 2.15,0.19 3.42,0.19 3.73,0 8.39,-1.46 10.84,-2.76 0,-1.36 0.57,-5.3 0.77,-6.92 0.09,-0.65 0.27,-1.71 0.27,-2.39 0.59,-0.32 3.12,-2.26 3.69,-2.78l2.42 -2.24c0.18,-0.17 0.29,-0.31 0.47,-0.47l1.48 -1.38c0.62,-0.63 1.21,-1.26 1.85,-1.86 1.11,-1.02 2.26,-2.06 3.24,-3.22 1.1,-1.32 3.93,-3.77 5.05,-5.22 0.52,-0.67 1.14,-1.17 1.72,-1.98 1.34,-1.85 2.39,-3.91 3.56,-5.86 0.47,-0.79 0.9,-1.5 1.39,-2.31l1.24 -2.47c0.96,-2.04 1.17,-4.01 1.27,-6.24 0.05,-1.12 0.23,-2.25 0.28,-3.42l0.86 -10.36c0.02,-1.77 0.24,-1.19 0.01,-3.35 -0.54,-5.18 -1.67,-10.85 -2.68,-15.94 -0.2,-1.02 -0.37,-2.08 -0.75,-3.05 -0.69,-1.73 -1.71,-3.33 -2.7,-4.81 -0.52,-0.77 -0.99,-1.48 -1.49,-2.22 -0.61,-0.92 -0.88,-1.38 -1.8,-2 -0.52,0.45 -0.84,0.64 -1.26,1.31 -1.05,1.69 -2.07,3.66 -2.16,5.72 -0.25,5.25 1.52,6.6 1.52,8.75z"/>
    <path class="fil4" d="M123.52 91.53c-0.09,0.55 0.1,0.67 0.71,1.41 0.65,0.79 1.54,1.53 2.58,1.88 0.9,0.3 1.77,-0.02 1.98,0.6 0.06,0.18 -0.01,0.09 0.09,0.29 0.22,0.44 1.22,0.52 1.68,0.57 1.33,0.16 1.88,-0.34 2.62,-0.33 0.32,0.86 0.01,1.66 1.18,1.9 0.94,0.19 1.79,-0.33 2.65,-0.38 0.42,0.82 0.63,1.29 1.73,1.58 0.53,0.13 1.07,0.04 1.49,-0.12 0.41,-0.16 1.02,-0.57 1.28,-0.35 0.09,0.07 0.33,1.61 2.02,1.47 1.19,-0.1 1.69,-0.89 2.39,-1.19 0.45,0.36 0.82,1.42 2.85,1.33 1.23,-0.05 2.31,-0.61 3.14,-1.07l0 -5.94c-0.95,0.01 -1.63,0.37 -2.24,-0.3 -0.9,-0.99 -1.6,-3.72 -2.69,-5.01 -2.2,-2.58 -4.83,-0.63 -7.27,0.65 -4.1,2.16 -6.9,3.93 -11.76,3.72 -1.59,-0.07 -2.86,-1.05 -4.43,-0.71z"/>
    <path class="fil4" d="M155.96 93.17l0 5.97c0.96,0.43 1.84,1 3.17,1.05 0.68,0.03 1.25,-0.06 1.77,-0.36 0.59,-0.35 0.67,-0.7 1.08,-0.99 0.78,0.54 2.39,1.96 3.76,0.79 0.51,-0.45 0.36,-0.64 0.66,-1.14 0.74,-0.02 2.01,1.38 3.75,0.04 0.34,-0.26 0.45,-0.61 0.66,-1.05 1.13,-0.01 3.69,1.65 3.8,-1.55 0.89,0.02 1.31,0.5 2.65,0.36 2.08,-0.22 1.59,-0.68 1.85,-1.15 1.28,-0.3 1.62,0.07 3.24,-1.04 0.49,-0.34 0.8,-0.64 1.14,-1.06 0.46,-0.57 0.66,-0.57 0.63,-1.57 -2.24,-0.19 -3.61,1.71 -8.97,0.28 -6.44,-1.72 -11.21,-7.73 -14.29,-3.84 -1.13,1.44 -1.86,4.17 -2.67,5.02 -0.57,0.61 -1.44,0.3 -2.23,0.24z"/>
    <path class="fil4" d="M155.4 121.1c2.5,0.89 1.31,1.84 4.77,-0.62 1.13,-0.8 3.02,-2.27 2.98,-4.46 -0.06,-3.97 -6.18,-5.24 -9.22,-5.64 -2.15,-0.29 -4.73,-0.15 -6.87,-0.53 -1.92,-0.35 -4.02,-0.99 -5.46,-1.97 -0.52,-0.35 -1.56,-1.53 -0.63,-2.31 0.63,-0.54 2.49,-0.33 3.43,-0.27 1.33,0.08 1.59,0.51 2.68,1.02 0.98,0.46 4.44,0.08 3.49,-1.32 -1.34,-1.99 -1.99,-1.76 -3.89,-1.72 -1.86,0.04 -5.03,0.28 -6.46,0.95 -2.34,1.11 -1.62,3.32 -0.13,4.5 6.91,5.47 12.7,3.06 17.34,4.9 1.32,0.53 3.66,2.36 2.42,4.35 -0.62,0.99 -2.11,1.63 -3.3,2.31 -0.22,0.12 -0.44,0.25 -0.6,0.34 -0.51,0.29 -0.42,0.23 -0.55,0.47z"/>
    <path class="fil4" d="M155.52 132.09c0.37,0.17 0.44,0.38 0.81,0.26 0.43,-0.14 3.35,-2.86 3.43,-4.92 0.11,-2.71 -1.8,-4.49 -4.14,-5.44 -2.7,-1.08 -9.15,-2.9 -7.74,-6.28 0.42,-1.02 1.52,-1.89 2.52,-2.32 -0.29,-0.29 -2.69,-0.52 -3.22,-0.61 -0.57,-0.09 -0.65,-0.12 -0.99,0.19 -0.77,0.7 -1.79,1.86 -1.6,3.52 0.57,4.94 9.67,6.35 12.16,8.57 1.77,1.58 1.23,3.65 -0.5,5.09 -0.88,0.74 -0.83,0.36 -0.73,1.94z"/>
    <path class="fil4" d="M152.8 109.52l2.35 0.27 0.33 -21.78c-0.6,0.15 -0.86,0.42 -1.58,0.41 -0.74,-0.02 -0.89,-0.31 -1.4,-0.4 -0.12,1.22 0.15,13.66 0.17,16.12 0.01,1.02 -0.06,4.64 0.13,5.38z"/>
    <path class="fil4" d="M165.21 105.26c0.89,0 1.53,-0.08 1.9,0.61 1.21,2.26 -4.85,3.68 -6.27,3.96 -0.57,0.11 -3.63,0.32 -3.77,0.39 0.25,0.19 1.72,0.66 2.1,0.81 0.37,0.15 1.97,0.88 2.07,0.9 0.74,0.13 3.72,-1.24 4.31,-1.57 1.35,-0.76 2.51,-1.59 3.13,-2.75 1.03,-1.95 0.35,-2.74 -1.43,-3.42 -1.37,-0.51 -3.41,-0.71 -5.03,-0.87 -2.28,-0.24 -3.09,-0.52 -4.39,1.04 -0.43,0.53 -1.19,1.31 -0.03,1.78 2.52,1.03 3.65,-0.48 4.64,-0.71 0.61,-0.15 2.06,-0.17 2.77,-0.17z"/>
    <path class="fil4" d="M155.33 139.1c-0.02,0.52 -0.12,1.12 0.02,1.6 0.36,0.14 0.35,0.21 0.67,-0.03 0.48,-0.37 0.97,-0.99 1.34,-1.52 0.55,-0.8 0.96,-1.78 0.71,-3.04 -0.69,-3.43 -5.87,-4.14 -7.68,-7.55 -1.43,-2.7 1.42,-3.77 1.93,-4.74 -0.31,-0.25 -0.81,-0.48 -1.23,-0.71 -0.64,-0.36 -0.86,0.05 -1.23,0.38 -0.48,0.42 -1.32,1.36 -1.62,2.18 -0.83,2.31 0.85,4.49 1.82,5.5 1.21,1.26 2.95,2.07 4.37,3.24 1.12,0.91 3.33,3.18 0.9,4.69z"/>
    <path class="fil4" d="M153.27 81.71c-0.54,0.58 -0.85,0.2 -1.68,1.29 -1.57,2.06 0.38,5.23 3.07,4.52 1.38,-0.36 2.6,-1.8 2.09,-3.62 -0.46,-1.63 -2.96,-2.75 -3.48,-2.19z"/>
    <path class="fil4" d="M155.18 145.77l-0.01 3.28c0.4,-0.13 0.84,-1.21 1.02,-1.73 0.29,-0.82 0.43,-1.56 0.42,-2.5 -0.05,-4.25 -3.65,-4.13 -5.03,-6.61 -0.43,-0.78 -0.37,-1.57 0.11,-2.26 0.77,-1.11 0.86,-0.21 0.79,-2.17l-0.74 -0.44c-0.86,0.5 -1.92,1.6 -2.12,2.95 -0.37,2.57 2.27,4.34 4.05,5.91 1.21,1.06 1.52,1.32 1.51,3.57z"/>
    <path class="fil4" d="M152.85 120.01c0.26,0.19 1.83,0.85 2.16,0.84 0.01,-1.08 0.15,-6.53 0.03,-7.11l-2.22 -0.31 0.03 6.58z"/>
    <path class="fil4" d="M154.86 131.46l0.06 -6.6 -1.99 -1.12 0.04 5.98c0,0.62 -0.06,0.58 0.36,0.84 0.38,0.24 1.11,0.82 1.53,0.9z"/>
    <path class="fil4" d="M153.07 138.73c0.28,0.25 1.31,1.07 1.66,1.13l0.05 -4.46 -1.72 -1.25 0.01 4.58z"/>
   </g>
  </g>
 </g>
</svg>
