<?xml version="1.0" encoding="UTF-8"?>
<!DOCTYPE svg PUBLIC "-//W3C//DTD SVG 1.0//EN" "http://www.w3.org/TR/2001/REC-SVG-20010904/DTD/svg10.dtd">
<!-- Creator: CorelDRAW 2020 (64-Bit) -->
<svg xmlns="http://www.w3.org/2000/svg" xml:space="preserve" width="2480px" height="3508px" version="1.0" style="shape-rendering:geometricPrecision; text-rendering:geometricPrecision; image-rendering:optimizeQuality; fill-rule:evenodd; clip-rule:evenodd"
viewBox="0 0 2480 3507.43"
 xmlns:xlink="http://www.w3.org/1999/xlink"
 xmlns:xodm="http://www.corel.com/coreldraw/odm/2003">
 <defs>
  <style type="text/css">
   <![CDATA[
    .fil0 {fill:#231F20}
    .fil3 {fill:#7D7D7D}
    .fil2 {fill:#B01117}
    .fil4 {fill:#FFFEFE}
    .fil1 {fill:white}
   ]]>
  </style>
 </defs>
 <g id="Capa_x0020_1">
  <metadata id="CorelCorpID_0Corel-Layer"/>
  <g id="_2232500259024">
   <path class="fil0" d="M246.25 133.87c-15.68,69.36 -104.59,78.9 -137.83,28.63 -43.47,-65.74 14.9,-134.55 78.45,-121.12 36.56,7.72 69.9,45.95 59.38,92.49zm-200.16 -102.61c-0.85,11.14 23.85,21.68 26.38,33.77 -7.68,-0.37 -12.16,-7.63 -21.05,-16.5 -3.15,-3.14 -16.29,-19.47 -19.26,-13.98 -2.07,3.83 12.67,16.27 15.57,19.14l14.16 13.97c3.56,4.06 3.17,2.07 1.99,6.4 -8.75,0.99 -29.47,-33.63 -38.98,-32.15 -4.02,6.45 2.19,9.11 13.8,20.81 3.58,3.61 16.33,13.96 16.26,18.46 -5.85,2.06 -8.45,-3.32 -16.96,-11.86 -3.95,-3.96 -10.89,-13.7 -16.85,-13.16 -0.03,0.09 -3.9,0.58 1.88,7.38 1.65,1.94 4.1,3.84 6.08,5.82 4.31,4.31 7.51,7.5 11.77,11.81 6.98,7.07 15.36,16.55 29.87,10.33 6.13,3.45 8.84,7.19 14.06,10.63 0.81,35.71 1.03,48.58 21,71.84 12.54,14.61 34.15,29.03 63.69,29.43 28.24,0.37 47.37,-10.72 64.71,-28.46 17.68,-18.1 23.89,-38.41 22.2,-70.55l13.06 -13.23c19.65,5.46 29.45,-1.22 37.34,-13.18 5.56,-8.43 19.26,-29.98 8.91,-41.67 -12.84,-14.49 -69.56,12.24 -55.7,43.84l-7.06 8.7c-7.82,-12.52 -10.3,-25.81 -28.34,-39.56 -45.31,-34.53 -107.62,-17.95 -130.19,27.22 -1.85,3.69 -3.93,8.73 -5.99,11.98l-6.9 -7.62c7.45,-18.32 -6.63,-26.71 -21.09,-41.37 -11.64,-11.8 -8.44,-8.93 -13.05,-8.58 -0.32,0.03 -0.88,0.19 -1.31,0.34z"/>
   <path class="fil1" d="M99.23 125.03c-4.17,-42.67 26.55,-75.45 63.04,-79.43 42.48,-4.62 75.77,25.65 79.91,63.14 8.53,77.21 -88.82,105.28 -126.91,54.31l-7.01 -10.21c-4.5,-7.37 -8.03,-17.54 -9.03,-27.81zm147.02 8.84c10.52,-46.54 -22.82,-84.77 -59.38,-92.49 -63.55,-13.43 -121.92,55.38 -78.45,121.12 33.24,50.27 122.15,40.73 137.83,-28.63z"/>
   <g>
    <path class="fil2" d="M129.05 94.56l0 3.13c0,0.5 0.14,0.67 0.18,1.06 0.35,3.22 0.31,4.18 1.17,7.67 0.66,2.66 1.58,5.21 2.68,7.5 0.91,1.89 1.08,2.28 2.17,4.1 3.4,5.69 9,11.23 14.63,14.47 0.54,0.31 1.07,0.63 1.64,0.92 0.34,0.17 0.45,0.28 0.79,0.45 5,2.43 9.27,3.61 14.8,4.31 4.67,0.58 10.24,0.1 14.8,-1.12 2.02,-0.53 5.41,-1.67 7.23,-2.56 0.53,-0.27 1.02,-0.52 1.58,-0.8 0.6,-0.29 1.02,-0.57 1.59,-0.88 2.08,-1.14 3.99,-2.57 5.86,-4.03l2.62 -2.32c0.52,-0.41 0.71,-0.78 1.16,-1.22 1.91,-1.9 3.42,-3.98 4.91,-6.21 2.94,-4.41 5.02,-9.62 6,-14.91 0.14,-0.76 0.26,-1.32 0.37,-2.11 0.43,-2.99 0.24,-6.44 0.24,-9.54 0,-1.1 -0.39,-3.14 -0.58,-4.27 -0.22,-1.34 -0.6,-2.7 -0.97,-3.97 -1.23,-4.29 -3.4,-8.84 -6.07,-12.48 -1.62,-2.2 -2.08,-2.84 -3.9,-4.74 -0.26,-0.26 -0.31,-0.42 -0.57,-0.67 -0.25,-0.23 -0.4,-0.3 -0.67,-0.56 -0.23,-0.23 -0.39,-0.39 -0.62,-0.62 -0.26,-0.27 -0.41,-0.33 -0.66,-0.57 -0.28,-0.26 -0.34,-0.34 -0.65,-0.59 -0.25,-0.19 -0.44,-0.36 -0.68,-0.56 -0.9,-0.76 -1.83,-1.48 -2.8,-2.14l-6.31 -3.58c-1.37,-0.56 -1.96,-0.89 -3.53,-1.42 -3.26,-1.1 -6.63,-1.98 -10.12,-2.24l-2.27 -0.19c-1.3,0 -3.36,-0.08 -4.56,0.1l-3.41 0.39c-2.56,0.36 -5.68,1.12 -8.04,2.03 -1.28,0.5 -2.39,0.88 -3.64,1.5 -3.56,1.78 -5.47,2.9 -8.52,5.36 -0.28,0.22 -0.48,0.4 -0.73,0.6l-1.37 1.2c-1.31,1 -3.8,3.89 -4.87,5.31 -0.38,0.51 -0.73,0.97 -1.08,1.48l-2 3.04c-0.31,0.55 -0.56,1.11 -0.89,1.67 -1.33,2.21 -2.93,6.77 -3.54,9.2 -0.71,2.84 -0.95,4.78 -1.18,7.66 -0.04,0.47 -0.19,0.61 -0.19,1.15z"/>
    <path class="fil3" d="M109.75 111.95l0 3.9c0,2.1 0.39,3.99 0.38,6.09 0,3.01 0.53,9.03 1.01,11.92 0.33,2.02 2.33,4.52 3.33,6.36l2.29 4.18c0.57,0.76 1.11,1.54 1.76,2.23l2.71 3c1.07,1.1 2.21,2.11 3.24,3.23l3.99 4.09c1.08,1.07 2,2.3 3.21,3.25 0.34,0.26 0.52,0.51 0.83,0.79 0.19,0.18 0.23,0.17 0.42,0.33 0.18,0.15 0.27,0.27 0.43,0.43 1.4,1.3 2.97,2.45 4.46,3.63 0.37,0.29 0.32,0.69 0.39,1.22 0.05,0.42 0.13,1 0.17,1.45l0.67 5.79c0.13,1.17 0.24,0.99 1.64,1.59 3.49,1.51 8.47,2.25 13.04,1.96l0.71 -0.03c1.79,-0.02 7.43,-0.57 6.99,-3.17l-1.43 -7.13c-0.2,-0.87 -1.16,-4.83 -1.18,-5.67 -0.79,0.18 -1.3,0.96 -2.09,1.14l0.27 -5.62c0.21,-2.44 0.51,-2.83 -1.13,-5.69 -0.47,-0.81 -1.11,-1.57 -1.69,-2.3 -0.22,-0.27 -0.42,-0.4 -0.65,-0.69 -0.39,-0.5 -0.78,-0.9 -1.25,-1.31l-3.51 -3.14c-0.25,-0.24 -0.45,-0.37 -0.72,-0.62 -1.7,-1.58 -3.59,-3.02 -5.32,-4.56 -1.88,-1.68 -4.2,-3.53 -5.94,-5.28l-2.71 -2.52c-4.29,-4.31 -4.97,-6.33 -8.18,-10.27 -0.79,-0.97 -1.56,-2.02 -2.53,-2.79 -0.51,-0.41 -0.94,-0.79 -1.51,-1.15 -1.87,-1.17 -4.21,-0.85 -5.08,1.34 -1.12,2.84 -0.16,6.59 1,9.2 2.02,4.54 7.64,9.7 8.8,13.35 0.6,1.91 0.94,3.85 1.57,5.76 0.62,1.89 1.04,3.8 1.77,5.64 0.8,2.02 5.43,8.46 5.61,9.13 -1.4,-0.94 -2.54,-2.12 -3.69,-3.35 -0.77,-0.83 -1.43,-1.74 -2.07,-2.68 -1,-1.43 -1.88,-2.91 -2.64,-4.49 -1.57,-3.23 -2.95,-11.4 -5.69,-13.23 -1.75,-1.17 -2.69,-2.7 -3.73,-4.45 -0.88,-1.46 -2.11,-4 -2.77,-5.59 -1.66,-3.97 -1.34,-10.59 1.6,-12.77 1.18,-0.88 2.79,-1.16 4.44,-1.16 0.53,0 0.57,0.09 1.05,0.09 -0.03,-0.29 -0.28,-0.88 -0.38,-1.14 -0.8,-2 -0.92,-3.7 -0.76,-5.89l0.16 -3.02c-0.04,-0.48 -0.04,-1.39 -0.19,-1.9 -0.07,-0.26 -0.26,-0.55 -0.26,-0.88 0,-1.65 1.52,-2.25 1.52,-6.56 0,-2.23 -0.01,-4.55 -0.72,-6.6 -0.67,-1.92 -1.86,-4 -3.57,-1.88 -0.63,0.78 -2.99,4.61 -3.56,5.57 -0.96,1.62 -1.48,3.18 -1.82,5.12 -0.24,1.39 -2.69,14.32 -2.69,15.75z"/>
    <path class="fil3" d="M222.03 100.07c0,1.1 -0.28,1.86 -0.28,2.85l0.11 3.12c0.22,2.09 0.2,2.31 -0.23,4.47 -0.18,0.9 -0.55,1.92 -0.55,2.87 2.43,0 4.84,0.39 5.88,1.54 1.67,1.84 2.29,4.43 2.29,7.3 0,3.34 -2.72,8.86 -4.12,10.99 -0.14,0.21 -0.2,0.33 -0.32,0.54 -0.15,0.23 -0.26,0.34 -0.4,0.55l-0.8 1.1c-1.43,1.8 -2.25,1.74 -3.57,4.03 -0.47,0.82 -0.83,1.73 -1.19,2.62 -0.74,1.85 -1.36,3.54 -2.01,5.5 -0.71,2.13 -1.11,3.45 -2.22,5.38 -0.69,1.2 -1.48,2.31 -2.3,3.41 -0.7,0.94 -1.83,2.25 -2.67,3.03 -0.64,0.59 -1.35,1.25 -2.07,1.74 0.1,-0.38 1.32,-2.23 1.56,-2.63l3.1 -5.27c1.35,-2.49 1.66,-3.22 2.37,-6.08 0.29,-1.13 0.61,-2.28 0.87,-3.41 0.3,-1.34 0.77,-3.62 1.56,-4.71l3.56 -4.9c0.29,-0.41 0.57,-0.83 0.86,-1.24 0.58,-0.81 1.16,-1.63 1.71,-2.47l1.65 -2.63c0.69,-1.27 0.83,-1.56 1.17,-3.02 0.32,-1.39 0.51,-2.64 0.54,-4.16 0.01,-0.97 -0.19,-2.13 -0.71,-2.92 -0.15,-0.22 -0.29,-0.39 -0.47,-0.57 -1.82,-1.88 -3.86,-1.25 -5.63,0.53 -2.19,2.22 -3.86,4.84 -5.6,7.43 -0.86,1.27 -2.13,2.45 -2.7,3.19 -0.39,0.51 -0.74,0.77 -1.16,1.22 -0.22,0.24 -0.27,0.37 -0.52,0.62l-5.23 4.84c-0.18,0.15 -0.2,0.14 -0.38,0.29 -1.86,1.66 -3.84,3.2 -5.7,4.85l-7.07 6.06c-1.71,1.32 -4.55,4.55 -5.16,6.71 -0.55,1.93 -0.2,4.36 -0.11,6.27 0.06,1.14 0.29,2.24 0.29,3.42 -0.7,-0.19 -1.46,-0.88 -2.19,-1.04 -0.24,1.03 -0.49,2.15 -0.66,3.23 -0.36,2.21 -0.96,4.36 -1.37,6.61 -0.12,0.61 -0.23,1.18 -0.32,1.69 -0.31,1.82 -1.31,3.26 4.47,4.03 0.56,0.07 0.98,0.1 1.53,0.18 0.48,0.06 1.23,0.14 1.67,0.13 1.18,0 2.16,0.19 3.43,0.19 3.73,0 8.39,-1.46 10.84,-2.75 0,-1.37 0.57,-5.3 0.78,-6.93 0.08,-0.65 0.26,-1.71 0.26,-2.39 0.59,-0.31 3.13,-2.26 3.69,-2.78l2.42 -2.24c0.18,-0.17 0.3,-0.31 0.47,-0.47l1.48 -1.38c0.63,-0.63 1.21,-1.26 1.85,-1.86 1.11,-1.02 2.27,-2.06 3.24,-3.22 1.1,-1.32 3.93,-3.77 5.05,-5.22 0.52,-0.67 1.15,-1.17 1.73,-1.98 1.33,-1.85 2.38,-3.91 3.55,-5.86 0.47,-0.79 0.9,-1.5 1.39,-2.32l1.24 -2.46c0.96,-2.04 1.18,-4.01 1.27,-6.24 0.05,-1.13 0.23,-2.25 0.29,-3.42l0.85 -10.37c0.03,-1.77 0.25,-1.19 0.02,-3.34 -0.55,-5.18 -1.67,-10.85 -2.69,-15.95 -0.2,-1.02 -0.36,-2.07 -0.75,-3.05 -0.68,-1.73 -1.71,-3.33 -2.7,-4.81 -0.51,-0.77 -0.98,-1.48 -1.48,-2.22 -0.61,-0.92 -0.89,-1.38 -1.81,-2 -0.52,0.45 -0.83,0.64 -1.25,1.31 -1.06,1.69 -2.08,3.66 -2.17,5.72 -0.24,5.25 1.52,6.6 1.52,8.75z"/>
    <path class="fil4" d="M140.03 73.39c-0.1,0.55 0.09,0.67 0.7,1.41 0.65,0.79 1.54,1.53 2.58,1.88 0.9,0.3 1.77,-0.02 1.98,0.6 0.06,0.18 -0.01,0.09 0.09,0.29 0.23,0.44 1.22,0.52 1.69,0.57 1.32,0.16 1.87,-0.34 2.61,-0.33 0.32,0.86 0.01,1.66 1.18,1.9 0.94,0.19 1.79,-0.33 2.65,-0.38 0.42,0.82 0.64,1.29 1.73,1.57 0.53,0.14 1.07,0.05 1.49,-0.11 0.41,-0.16 1.03,-0.57 1.28,-0.35 0.09,0.07 0.33,1.61 2.03,1.47 1.18,-0.1 1.68,-0.89 2.38,-1.19 0.46,0.36 0.83,1.42 2.86,1.33 1.23,-0.05 2.31,-0.61 3.13,-1.07l0.01 -5.94c-0.96,0.01 -1.64,0.37 -2.25,-0.3 -0.89,-0.99 -1.59,-3.72 -2.69,-5.01 -2.2,-2.59 -4.83,-0.64 -7.26,0.65 -4.11,2.16 -6.91,3.93 -11.77,3.72 -1.59,-0.07 -2.86,-1.05 -4.42,-0.71z"/>
    <path class="fil4" d="M172.47 75.03l0 5.96c0.96,0.44 1.83,1.01 3.17,1.06 0.68,0.03 1.24,-0.06 1.76,-0.36 0.59,-0.35 0.67,-0.7 1.09,-0.99 0.78,0.54 2.39,1.96 3.75,0.79 0.52,-0.45 0.37,-0.64 0.67,-1.14 0.74,-0.02 2.01,1.38 3.75,0.04 0.33,-0.26 0.45,-0.61 0.66,-1.05 1.12,-0.02 3.68,1.64 3.8,-1.55 0.88,0.01 1.31,0.5 2.65,0.36 2.08,-0.22 1.59,-0.68 1.85,-1.15 1.28,-0.3 1.62,0.07 3.24,-1.05 0.49,-0.33 0.8,-0.63 1.14,-1.05 0.46,-0.57 0.66,-0.57 0.63,-1.57 -2.24,-0.19 -3.61,1.7 -8.98,0.27 -6.43,-1.71 -11.21,-7.72 -14.28,-3.83 -1.14,1.43 -1.87,4.17 -2.68,5.02 -0.57,0.61 -1.43,0.29 -2.22,0.24z"/>
    <path class="fil4" d="M171.91 102.96c2.5,0.89 1.31,1.84 4.77,-0.62 1.13,-0.8 3.01,-2.27 2.98,-4.45 -0.07,-3.97 -6.18,-5.25 -9.23,-5.65 -2.15,-0.28 -4.73,-0.15 -6.86,-0.53 -1.93,-0.35 -4.02,-0.99 -5.46,-1.97 -0.53,-0.35 -1.57,-1.53 -0.63,-2.31 0.63,-0.54 2.48,-0.33 3.42,-0.27 1.33,0.08 1.59,0.51 2.68,1.02 0.99,0.46 4.44,0.08 3.49,-1.32 -1.34,-1.99 -1.99,-1.76 -3.89,-1.72 -1.86,0.04 -5.03,0.28 -6.46,0.95 -2.34,1.12 -1.61,3.32 -0.12,4.5 6.9,5.47 12.7,3.06 17.34,4.91 1.32,0.52 3.65,2.35 2.42,4.34 -0.62,0.99 -2.11,1.63 -3.3,2.31 -0.22,0.13 -0.44,0.25 -0.61,0.34 -0.51,0.3 -0.42,0.23 -0.54,0.47z"/>
    <path class="fil4" d="M172.03 113.95c0.37,0.17 0.44,0.39 0.8,0.27 0.43,-0.14 3.36,-2.86 3.44,-4.92 0.11,-2.72 -1.8,-4.5 -4.14,-5.44 -2.71,-1.09 -9.16,-2.9 -7.75,-6.29 0.43,-1.02 1.52,-1.89 2.53,-2.32 -0.3,-0.29 -2.7,-0.52 -3.23,-0.61 -0.57,-0.09 -0.65,-0.12 -0.99,0.19 -0.77,0.7 -1.79,1.87 -1.6,3.52 0.57,4.95 9.68,6.36 12.16,8.57 1.78,1.58 1.23,3.65 -0.5,5.1 -0.88,0.73 -0.82,0.35 -0.72,1.93z"/>
    <path class="fil4" d="M169.3 91.38l2.35 0.27 0.34 -21.78c-0.6,0.15 -0.86,0.42 -1.58,0.4 -0.74,-0.01 -0.89,-0.3 -1.4,-0.4 -0.13,1.23 0.15,13.67 0.16,16.13 0.01,1.02 -0.06,4.64 0.13,5.38z"/>
    <path class="fil4" d="M181.72 87.12c0.89,0 1.53,-0.08 1.9,0.61 1.2,2.26 -4.86,3.68 -6.28,3.96 -0.56,0.11 -3.63,0.32 -3.77,0.39 0.25,0.19 1.72,0.66 2.1,0.81 0.37,0.15 1.97,0.89 2.08,0.9 0.73,0.13 3.72,-1.24 4.3,-1.56 1.36,-0.77 2.52,-1.6 3.14,-2.76 1.03,-1.95 0.35,-2.74 -1.43,-3.42 -1.37,-0.51 -3.41,-0.71 -5.04,-0.87 -2.28,-0.24 -3.09,-0.52 -4.38,1.04 -0.44,0.53 -1.2,1.31 -0.04,1.78 2.53,1.03 3.66,-0.48 4.65,-0.71 0.61,-0.15 2.06,-0.17 2.77,-0.17z"/>
    <path class="fil4" d="M171.83 120.97c-0.01,0.51 -0.11,1.12 0.03,1.6 0.35,0.13 0.35,0.21 0.66,-0.03 0.49,-0.38 0.98,-0.99 1.34,-1.52 0.56,-0.81 0.97,-1.79 0.71,-3.04 -0.69,-3.43 -5.87,-4.14 -7.68,-7.56 -1.43,-2.7 1.42,-3.77 1.93,-4.74 -0.3,-0.25 -0.81,-0.48 -1.22,-0.71 -0.64,-0.35 -0.86,0.06 -1.23,0.38 -0.48,0.42 -1.32,1.36 -1.62,2.18 -0.83,2.32 0.85,4.49 1.82,5.51 1.2,1.25 2.94,2.07 4.37,3.23 1.12,0.92 3.32,3.19 0.89,4.7z"/>
    <path class="fil4" d="M169.78 63.56c-0.55,0.59 -0.85,0.21 -1.69,1.3 -1.57,2.06 0.38,5.23 3.08,4.52 1.38,-0.36 2.6,-1.8 2.09,-3.62 -0.46,-1.63 -2.96,-2.75 -3.48,-2.2z"/>
    <path class="fil4" d="M171.69 127.64l-0.01 3.28c0.4,-0.13 0.83,-1.21 1.02,-1.74 0.29,-0.81 0.42,-1.56 0.41,-2.49 -0.04,-4.26 -3.65,-4.14 -5.02,-6.61 -0.44,-0.78 -0.38,-1.57 0.1,-2.26 0.77,-1.11 0.86,-0.22 0.79,-2.17l-0.74 -0.44c-0.85,0.49 -1.92,1.6 -2.11,2.95 -0.38,2.57 2.26,4.34 4.05,5.91 1.2,1.06 1.51,1.31 1.51,3.57z"/>
    <path class="fil4" d="M169.36 101.88c0.26,0.19 1.82,0.84 2.15,0.83 0.02,-1.08 0.16,-6.53 0.03,-7.11l-2.22 -0.3 0.04 6.58z"/>
    <path class="fil4" d="M171.36 113.32l0.06 -6.59 -1.99 -1.12 0.04 5.97c0,0.63 -0.05,0.59 0.37,0.85 0.38,0.23 1.1,0.81 1.52,0.89z"/>
    <path class="fil4" d="M169.58 120.6c0.28,0.24 1.31,1.07 1.66,1.13l0.05 -4.47 -1.72 -1.25 0.01 4.59z"/>
   </g>
  </g>
 </g>
</svg>
